<svg width="22" height="21" viewBox="0 0 22 21" fill="none" xmlns="http://www.w3.org/2000/svg">
<g id="fichero/pdf">
<g id="doc-text-pdf">
<path d="M9.6875 14C9.92912 14 10.125 14.1959 10.125 14.4375C10.125 14.6791 9.92912 14.875 9.6875 14.875H9.25V14H9.6875Z" fill="#FF6259"/>
<path d="M12.75 14C13.2332 14 13.625 14.3918 13.625 14.875V15.75C13.625 16.2332 13.2332 16.625 12.75 16.625V14Z" fill="#FF6259"/>
<path fill-rule="evenodd" clip-rule="evenodd" d="M19.75 3.5C19.75 2.5335 18.9665 1.75 18 1.75H4C3.0335 1.75 2.25 2.5335 2.25 3.5V17.5C2.25 18.4665 3.0335 19.25 4 19.25H18C18.9665 19.25 19.75 18.4665 19.75 17.5V3.5ZM4.875 9.625H11V11.375H4.875V9.625ZM4.875 5.25H17.125V7H4.875V5.25ZM11 14.4375C11 13.7126 10.4124 13.125 9.6875 13.125H8.375V17.5H9.25V15.75H9.6875C10.4124 15.75 11 15.1624 11 14.4375ZM18 14V13.125H15.375V17.5H16.25V15.75H17.5625V14.875H16.25V14H18ZM11.875 13.125V17.5H12.75C13.7165 17.5 14.5 16.7165 14.5 15.75V14.875C14.5 13.9085 13.7165 13.125 12.75 13.125H11.875Z" fill="#FF6259"/>
</g>
</g>
</svg>
