<svg width="82" height="123" viewBox="0 0 82 123" fill="none" xmlns="http://www.w3.org/2000/svg">
<g clip-path="url(#clip0_6_8)">
<path fill-rule="evenodd" clip-rule="evenodd" d="M58.8906 0L81.687 23.0625V23.4733V119.156C81.687 121.279 79.986 123 77.8876 123H3.7994C1.70105 123 0 121.279 0 119.156V3.84375C0 1.72091 1.70105 0 3.7994 0H58.4805H58.8906ZM80.7372 23.4733H62.3482C60.2121 23.4733 58.4805 21.7217 58.4805 19.5611V0.960939H3.7994C2.2614 0.960939 1.00799 2.19362 0.951816 3.73568L0.949851 3.84375V119.156C0.949851 120.712 2.16831 121.98 3.69257 122.037L3.7994 122.039H77.8876C79.4256 122.039 80.679 120.806 80.7352 119.264L80.7372 119.156V23.4733Z" fill="#FF6259"/>
<path d="M39.4722 64.1986C39.7263 64.1986 39.9324 64.4047 39.9324 64.6588C39.9324 64.913 39.7263 65.1191 39.4722 65.1191H39.0119V64.1986H39.4722Z" fill="#FF6259"/>
<path d="M42.6941 64.1986C43.2026 64.1986 43.6146 64.6107 43.6146 65.1191V66.0397C43.6146 66.5481 43.2026 66.9603 42.6941 66.9603V64.1986Z" fill="#FF6259"/>
<path fill-rule="evenodd" clip-rule="evenodd" d="M50.0586 53.1518C50.0586 52.135 49.2343 51.3107 48.2175 51.3107H33.4885C32.4717 51.3107 31.6474 52.135 31.6474 53.1518V67.8808C31.6474 68.8976 32.4717 69.722 33.4885 69.722H48.2175C49.2343 69.722 50.0586 68.8976 50.0586 67.8808V53.1518ZM34.409 59.5957H40.8531V61.4369H34.409V59.5957ZM34.409 54.993H47.297V56.834H34.409V54.993ZM40.8531 64.6588C40.8531 63.8962 40.2348 63.278 39.4722 63.278H38.0914V67.8808H39.0119V66.0396H39.4722C40.2348 66.0396 40.8531 65.4215 40.8531 64.6588ZM48.2175 64.1986V63.278H45.4558V67.8808H46.3763V66.0396H47.7572V65.1191H46.3763V64.1986H48.2175ZM41.7736 63.278V67.8808H42.6941C43.7109 67.8808 44.5353 67.0565 44.5353 66.0396V65.1191C44.5353 64.1023 43.7109 63.278 42.6941 63.278H41.7736Z" fill="#FF6259"/>
</g>
<defs>
<clipPath id="clip0_6_8">
<rect width="82" height="123" fill="white"/>
</clipPath>
</defs>
</svg>
